<?xml version="1.0" encoding="UTF-8"?>
<svg id="Ebene_1" xmlns="http://www.w3.org/2000/svg" version="1.1" viewBox="0 0 758 753">
  <!-- Generator: Adobe Illustrator 29.0.0, SVG Export Plug-In . SVG Version: 2.1.0 Build 186)  -->
  <defs>
    <style>
      .st0 {
        fill: #39ff14;
      }
    </style>
  </defs>
  <path class="st0" d="M104.6,127.1C216.8,3.1,400.7-30.5,549.7,47.1c140.5,73.2,219.6,226.2,196.3,384.1-21.8,148-132.7,269.8-277.8,305.4-131.6,32.4-270.8-9.2-362-108.6C-24.2,486-24.8,270,104.6,127.1ZM691.8,422.5v6.7c0,1-2.6,2-2.9,3.1-.7,2.3.7,4.8-1.4,7.2s-4.1,1.5-5.3,2.3-.4,1.3-1.4,1.4c-2.6.2-10.1-8.1-11-10.8-1.8,0-2.7,2.1-3.6,2.9s-2.2.7-2.7,1.4c-.7,1.2.6,3-2.2,3.4-4.3.7-5.2-6.1-5.4-9.2l-1.1-.3c-.4.1-2,4.1-2.4,4.9-.8,1.5-2.9,2-1,4.6s3.1.3,2,3.3c-1.7,4.8-3.9,1.5-6.8,1.5s-3.5,3.6-5.5,5-2.8,0-3.5,2.7c-.9.5-1.1-2.3-2.6-2.6-2.9-.6-7.8,1.8-8.4,5s-.4,3.9-.3,4.8c0,1.4,1.9,3.3,1.8,4s-2.8,3.9-3.7,4.5c-2.8,2-6.4.2-8.7,1.2s-3.4,3.8-4.6,4.4c-3,1.3-4.9-1.8-7.9,1.6s-3.7,6.8-5.1,10.6l-1.9-.4-.4.4c.2,1.1,0,3.6-.6,4.5s-1.3.3-1.6.7.3,1.1,0,1.8-.9,1-1.1,2c-.4,1.7-1,9.1-.6,10.4s2.9,2.9-.5,3.5l-3.1-2.1-1.2,1.2-2.6-1.7-1.1,3.4c-.4.4-2.3-1.4-2.4-1.7s.9-2.8.6-4-1.4-1.3-1.8-2.1c-1.1-1.8-.5-3.1-.9-4.3s-1.5-2.6-1.1-4.9,1.4-.3.9-1.6l-1.7-.7,1.7-1.7-1.3-1.3,1.3-1.7c-4-2.8-1.3-2.4-.9-3.5s0-2,0-3,.7-1,.8-1.4c.1-.7-1-1-.8-1.9h1.3c.2-.2-1.8-4.9,1.3-4.3.2.2-1.4,2.9.6,3,.7-2,1.9-3.3,1.5-5.6h-1.7c.4-.9.5-2.8.9-3.5s1.1-.5,1.2-1-.3-1-.1-1.5c.5-1.4,3.2-1.7,3.8-3.1v-1.1c-2.3-.9,1.1-4.2,2.3-5.7s.9-.4,1-.5-.5-1-.3-1.8,1.3-1.2,1.7-1.8c1.8-3.1,3.3-9,7.7-8.9v-1.2c1.5-.1,1.9,1.4,3.5.7s1.6-2.4,2.4-3.2l-1.1-3.4c-.4-.4-2.1,1.8-2.6.2s.5-2.5.9-2.7c1.1-.6,4.7.3,4.7-2.7l1.7.4.4-1.5c1.7.7,3-1.3,4.2-2.6l-.3-3.6c2.7.6,3.2-2.1,5.3-3,2.8.2.5,3.8,1.8,3.8s2.4-2.3,3-3c1.8-1.9,1.9-1.5,3.3-4s2.4-2.3.5-2.8-2.2,2.7-3.2,3.7-2.3,1.4-2.5,1.4c-1,.2-1.8-2.3-2.3-3.1,2.9-1.2,2.8-3.1,4.1-5s2.6-3.2,2.8-3.3c.6-.4,1.6.4,1.7.2-.1-1.5.5-4.1,1.3-5.4,1.6-2.5,4-3.9,6.3-5.4s2.1-5.6,3.3-8.3,1.1-1.1,1.5-1.9c.8-1.8.5-4.6,2.3-6.4l2.2.5c.7-2.1,2.1-2,3.2-3.2,2.4-2.6,2.9-3,5.8-5.5s5.6-6.3,6.1-7c.7-.9.6-2.4,1.1-3.1s2-1.2,2.5-2.2c1.5-3.3,2.2-8.5,3.6-11.9s1-2.2,1.4-2.5,1.8.2,2.1-.3,0-1.2.2-1.7c.6-1.8.6-3.9,1.1-5s4.5-5,5.3-6.3c1.7-2.7,2.9-7,4.2-9.2,2-3.2,1.3-2.6,2.4-6.2s2.3-4.6,2.3-4.9-.7-.7-.6-1.2c.1-2.4,1.9-2.4,2.5-3.1,3.1-4.4,3.9-14.5,4.4-19.8s.9-2.1.9-3.5c-.1-2.2-3.6-11.2-4.5-13.6-3.8-10.5-10.6-19.8-13.9-30.5s-1-4.1-1-4.6c0-1.2.9-2.1.8-2.5,0-.6-1.3-2.6-1.5-3.7-1.3-5.1-2.7-9.8-4.2-14.8-2.8-9.4-6.1-21.6-11-29.9-1.5-2.6-3.8-4.9-5.6-7.4l1.3-1.3c-.7-1.3-2.9-5.9-2.1-7l4.3-.3c.1-2.6-3.2-4.8-3.7-6.7s.2-1.4.1-1.9c-.4-2-1.7-2.8.3-4.4s1.5.4,1.1-2.3l3.6,1.3,1.4-1.7c.9-.2,3,2.8,3.6.3-1.2-1.2-1.1-2.7-1.6-4-2.7-6.7-7.1-11.9-11.5-17.3s-2.9-4.7-3.6-3.9c-.2.4,1.1,2.7-.2,2.1s-4.2-3.9-5.6-5.2-1.3-.4-1.7-.9c-.7-.7-.5-2.1-1.3-3s-2-1.2-2.9-1.9c-4.6-3.4-8.5-8.8-13.1-13.2-7.2-6.8-13.8-14.4-21.8-20.4-19.7-15-42.5-28-64.9-38.5-27.9-13.2-57.5-22.8-87.6-28.4C280-14.3,113.2,73.7,44.9,226.6c-1.1,2.4-5.4,11.6-5.6,13.4s1.3,1.6-1,2.1c-24.2,61.9-31.8,131.5-20.1,197.2.5,3,1.2,7.6,2.1,10.3s.8.3.8.6c0,.4-.6,1.3-.4,1.5s.8-.1,1.2.1c.8.5,1,3.1,3.6,2.5l-1.3-3.9c.7-.1,1.1.3,1.5.9,1.1,1.8,1.6,5.3,2.7,7.2s1.7,1.9,2.3,2.9c10.6,18.9,16.3,39.1,28.3,57.4,3.2,4.9,2,3.4,3.2,8.8.9,4.1,4,9.9,6.4,13.4-4.5,2.5.5,6.4.9,9.5s0,5.5.4,8c-1.8.2-2.5-.2-3.2-1.7-2.7,0-.3,2.5,0,3.4s2.6,5,2.3,5.3l-3.4.2c24.1,39.4,55.2,74.2,91.9,102.1,124.6,94.9,297,99.8,426.8,11.8,84.6-57.4,143.1-149.4,157.2-251.2-.5.6-2.6,2.3-2.8,2.6-.5.9,0,2.4-1.3,3l-1.9-.9c-.3-2.2.2-4.4-.2-6.5s-.8-2.7-.8-2.8c-.2-.3-1.3,0-1.6-.8s.2-2.9-.6-4.2-3.1-1.2-4.4-1.2c-.2,1.8-1.4,2.7-2,4.1-.9,2.1-1.9,7.2-4.3,8.2s-1.7-.5-3,0-3.6,3.9-5.5,4.4-3.4-.6-5-.3-2.6,2.6-3.6,2.9-1.9,0-2.8.2c-1.7.5-2.4,2-4.4.8s-1.3-3-1.9-4.6-1.4-1.6-1.7-2.6c-.6-2.6,1.2-7.4-1.8-8.3Z"/>
  <path class="st0" d="M433.9,557.1c.1,0,.1.6.2.6,1,.5,1.6-1,2.6-.7s1.4,1.7,2,1.9c1.2.4,2.9-1.2,3.3,2.4s-5.3,1.7-8,2.6c.1,1.8,1.6,4.1,3.3,4.6s1.7,0,2.4.2c1.5.5,4.2,1.1,5.6,1.7s.3.8.5.9c1.8,0,1.8-3.2,2.8-3.7l1.7.2-.9,3c1.5.3,3.5-1.3,4.3-.2s-.4,2.1-1.3,3c1.3,1,2.1.2,1.7,2.4.8.3,2.3-1.3,2.8-.4,1.2,2.1-.8,2.4-1,2.7-1,1.6,1.9,2,2.3,2.5.6.8.1,2.6,2.3,3,1.4.4,1.6-1.5,2.3-1.9s2.4.9,2.6-1.5c1.1-.1,1.7.9,1.7,1.9l.9.3v-1.2s2.2,0,2.2,0c-.2-1.4.1-3.2,1.9-2.6s.5,1.3.8,1.6,1.9-.4,1.1,1.5-3.8,1.8-5.1,1.6c-.3.8.7,1.1.8,1.6s-.7.9-.7,1.3.6.9.7,1.2-1,.8-.7,1.5l2.2.4c-1.5-3.5,5.6-5.9,5.6-2.8-.6.6-.4,2.2-.5,2.6-.3.8-1.7.5-1.2,2,2.7,0,5.4,2.6,8,3s8.1-1.1,9.2-4.3c-1.9-.8-4.5,2.2-5.8,2.1s-3.1-1.1-3.5-1.3c-.9-.4-.9-1-1.5-1.5-.8-.7-2,0-1.6-2.1.6-3.1,2.8-.7,3.8-.9s1.8-1.5,2.1-2.4c-1.4.9-2.2-.2-2.8-.3s-1.5,1-2.3.7c-.1-1.5-1.4-2.2-.7-3.9,1.2-2.6,2.4-1,3.5-.9s2.2-.2,2.9,0,.5,2.2,1.4,0c2.2-.1,2,2.6,4.9,1.7,0-1.7-1.3-3.5.6-4.6l2.3.7,1.7-2.7c-2.2-3.6.6-2.4,2.4-2.8s.4-1,1-1.2c.9-.3,4.6,0,5.1.8,1.2,2-1.6,2.7-1.9,3.1s.4.7.1,1.2c-.4.8-2.1,1.2,0,1.7.4-1,2.4-.2,2.8.2s-.5,1.7,1.5,1.1.7-1.4,1-2c.7-1.5,1.4,0,1.9-.2.8-.3,2.7-2.9,3.6-3.6s1.1,0,1.1-.1c.1-.1-.7-2.2,0-3h-2.2c0-.6,0-1.1.2-1.7.4-.8,5.7-3,6.9-3.1,4.5-.1,1.1,2.6,1.5,3,1.9-.3,4.4-1.5,6.3-1.7s4.2.5,6.6-.7,1.6-2.2,3.9-1.5c-1.7-2.7,3.6-4.1,4.5-2.2s-1.3.9,0,1.7l2.4-1.7c0,.7.2,1.5-.2,2.2-.8,1.4-3.4,0-3.2,1.7,1.1-.3,2.6.4,3.5.2s.7-.8,1.1-1c1-.4,2.4-.9,3.5-.9l-1.7.9c-.4.3,1.9,2.1,2,2.1.8.2,1.8-.2,2.5,0,2,.6,5.3,1.4,3.7,3.9,1.7.6,1.4-2.1,3-1.1-.1,1.8.6,3.8-1.1,5h-.6c-.2-1.7-3.2.8-1.8-2.6-.6,0-1.3,0-1.9,0-3.7.3-1.8,1.6-3,3s-2.3.2-3.2,0l.4-3.4c-2.8.6-1.9-.8-2.8-1.7s-6.5,0-8.2-.4l-.3,1.3-3,.2-.4,2c1.1,0,2,.1,2.6,1.1-.8,2.5-3.4,1.2-5.2.6l.4-1.3-3,1.3c-.3-.9,1.7-2.5.2-3s-2,.4-1.9,1.7l-2.8-1.3c-.9,2.6-2.7.9-4.1,1.5-2.5,1.1-2,3.5-2.6,3.9l-2.2-.3-.4,2.2c2-.2,3,0,3.9,1.9-1,1.4-1.6,0-2.4-.6-.6,2.3-3.3,2.6-3.2,4.7,2.3-.5,1.1,1.8.2,2.6s-2,.6-3.2,1.1-1.7,2.6-3.9,1.9c-.6,1.1,2.4,2.7.9,3.7s-1.2-.7-1.9-.7c-1.4.2.7,1.4-.4,2.2-1.3.6-2.9.7-4.2,1.3s-2.1,1.3-2.5,1.5c-1,.6-1.2,2.6-1.4,2.8s-1.6-.5-2.5.2-1.3,2.6-1.7,3c-2.6,2.7-2.8.3-4.5.6s-.4,1.2-1.5,1.7c-1.8.7-4.5.9-6.3,1.4s-.8,1-3.9.6-1.9,1-2.6,1.1c-5.2.6-8.1-2-12.1-2.2s-2.5.8-2.8.7c-1.1-.2-6.3-5.9-5.1-7.7,3-1.4-.6-3.8-2.2-1.4s-2.3,5.3-2.5,6.2c-.5,2,1.9,2.2,2.1,3.8s-5,1.7-6,1.5c.2-2.6-2.5-3.7-3.3-6l-1.5,1.1,1.5,3c-.6,2.1-3.3,2.4-5.1,2s-1.9-2.3-2-2.5c-.3-1.1,1.4-3.4-.5-3.1l-1.6,4c.3,2.8,4.9,3.4,4.7,5.2-.7,1.9-2.4,2.6-4.3,2.9,0,1.7-1.2,2.8-1.4,4.4-.3,2.4.5,3.8.9,6l-3.9,10.8c3.9-.4,10.4,2.4,9.5,7.1,3.5-.8,6.2,1.9,8.4,4.3s3.2,4.7,3.5,4.8c2.9.7,3.5-1.7,4.6-1.7,1.7,0,5.3,3.7,1.2-2.4,3-2.9,4.2-4.9,8.8-4.6s9.5,3.5,11.8,5.9,2.3,3,2.4,3.2c.6,1.4.2,5.5.2,7.3,3,0,5.3,1.6,7.3,3.7s.4,1.8,1.3.8c-1-4.3,7.2-3.4,5.6.2l1.3-.7.9.5c-1.5,2.2.4,3.5,2.8,3.2s2.8-1.3,4.5-.9c0,.8-.6,1.5-.5,2.3s1.4.3.9,1.5l-6,1.7c-.2,1.1.2.7.6.9.9.5,2.1.9,3.1,1.3s1.3,0,.4.9c-1.9,1.9-5.6-.2-5.8,0l-.9,3,3.5.2c1,.6-.8,2-.4,2.8-1.2.2-.8-.4-.9-1.3-.9-.5-2,.7-2.4.7-.6,0-1.5-1.4-3.4-.3s-1.1,2.2-1.3,3.2-.7.8-.6,1.3.8.7.7,1.3c-.4,2.8-2.7.8-3,.9-.6,1.5-2.8,2.3-3.5,3.5s-.5,2.8-2.2,3.9-5.5.7-7.3,2.2-.5.4,0,.9l1.3,1.1c-1,.5-4.4,1.2-5,1.9s-.2,1.4-1,1.8-4,1.6-4.9,1.9c-3.4,1.3-7.7,1.9-11,3.2s-8.3,4.6-12.1,6.4-3.7.8-5,2.4-.5,2-.9,2.2c-.7.5-6.5.5-7.7.4s-1.4-1.7-3.4.7l-4.1-.7c.6,2.3-1,2.7-2.8,3.5s-9.7,3.5-12.2,4.2-2.7-.2-3.7.2-.5,1.1-1,1.2c-1.3.3-2.9-.6-3.7-.4s-.8.9-1.5,1.1c-4.6,1.6-12.8,2.1-17.5.9s-9.8-2.2-16.1-2.9-8.9-1.1-13.3-1.8-4.4.2-4.6,0c-.4-1.3.7-2.9,1.8-3.6s1.4-.2,2-.7.6-1.9,1.5-2.4c1.4-.7,4.3,0,4.7-2.4-1.4.9-2.5-.3-3.2-.3s-2.5.4-2.8.4c-1.7.4-3.6,2.5-4.6,2.8-5,1.4-10.9-.5-16.3,0s-12.9.7-19.3-1-3.6-1.6-4-1.6c-.6,0-1.1.9-1.7.8s-2.7-1.9-4-2.1-4,.3-5.1,0-.2-.9-.5-1.3c-1.1-1.4-4.1-1.4-5.7-2.1-3.9-1.7-7.7-4-11.6-5.7-.3.8-.3,1-1.3.9-.9-2.6-2-2.1-3.8-3.1s-1.7-1.8-3.5-1.9-.6.5-.8.5c-.4,0-.7-.7-1.2-.6-.9.1-1.7,1.7-3.5,0l-.4-2.1c-3.3-1.5-6.2-4.4-8.7-7s-.7-1.7-1.7-2.6c-2.1-1.8-4.5-1.6-6.7-2.4s-5.5-3.6-5.6-3.9c1.9-2.4-1.2-3.3-1.3-4.3s1.4-1.4.6-2.3c-2.2-2.3-5.7-4.2-7.8-6.4s-2.8-4.1-4-5.4-2.8-1.2-3.5-2.6c.3-1.8,2.8-.4,2.6-2.6s-2.3-1.4-3.6-2-2.5-1.5-3.3-2.3c-1.6-1.6-4.1-5.4-4.3-7.5-.3-.3-8.6.6-7.3-3,1.8-.8,7.6,2.6,6.7-1.3s0-8,.3-11.4,1.2-2,0-3.5c1.1-1.4,2.4-.5,3.2.6h.6c-.2-1.3,1.5-1.5,1.7-1.8.3-.4-.4-1.3-.3-1.8.4-2.3,4.1,1.7,2.9-2.1l.9-.5-.5-1.5h3s.3-3.5.3-3.5c-.5-.7-3,0-3.3-1.7,1.5-.5,2.2-1.6,3.7-.1l2.3-1.7-.8-3c2,1.1,2.1-.3,3-.6,1.5-.6,6.2-1.1,6.4-1.3.5-.3.7-1.6,1.3-2.2s1.9-1.1,2.6-1.8c1.1-1.1,2.6-3.8,3.8-4.4,1.8-.9,4.9,0,7.1-.9l-.4-2.1c2.4,1.1,4.8.6,5.6,3.7,2.8-.2,4.8,4,6.5,4.7s2.3,0,2.8.6c0,2.5-2.2,3.7-.6,6.4h2.1c0,0-.2,2.2-.2,2.2l3.1.8c.9.7.4,1.9.7,2.5s.7.3.9.6c2.1,3.5,1.2,1.7,4.2,2.7,5,1.6,8.3,3.9,13.9,4.4s3.3.3,4.2-.6.4-2,1.4-1.7.6,2.5,1.3,2.6l2.4-.9c.5,1.5-1.2,1.5-1.3,2-.4,1.7,1.1,2.6,1.6,3.9s0,1.6.1,1.8,1.4,0,2,.4c.9.4,2.1,1.5,2.7,1.6s1.4-.4,1.9-.2.5,1.1,1,1.3c1.6.5,1.3-1,2.1-.9,1.5.2,4.5,3.5,5.6.9h.9s1.5,1.5,1.5,1.5c1.8-1.8,5.6.2,6.2.1,6.8-1.1,13.8-2,20.8-3.4s2.5-1.9,3.9-2.1c3-.5,8.5.7,11.1-.1s1-1.1,1.6-1.4c1.1-.5,1.5.9,2.1-2.2l2.2-.2v-1.3c-3.2.2-6.4,0-9-2s-3.7-4.7-4.1-5.4,0-1.9-.9-2.6c-1.3-1.1-6-1.1-5.4-4.3-1.7-.1-3.6.6-4.7-1.1,2.2-3.3,5.9-1.9,9.1-2.1l1.1-5.2c-1.2-2.4-4.1-3.6-6.6-4s-6.5-.2-9.4-.6-2-1.1-3.3-.8l1.3-3.9c-2-1-3,1.7-3.3,1.8-.5.1-2.9-.5-3.5-.8-1.3-.7-2.2-3.9-3.6-5.1,1-1.5,1.5.3,2.6.2-.4-3.6,4.2-2.9,6.4-1.8l1.8-2.7c-1.2-.6-1.9-1.4-1.8-2.8.7-.3,2.1.2,2.6-.7s-2.3-.2-2.1-1.7c.7-2.3,3.8-2.2,4.5-4.2s-.6-1.3-.6-2.6c1.7-.6,1.6,1.2,2.7.8s1.3-2.1,2.5-2.6,3.8.1,4.8-1.6.2-1.7.8-2.2,1.9-.2,2.8-.6,1.1-1.9,1.8-2.6,2.8-1.7,3-1.8c2.6-.8,2.5,2.9,5.6.7.5-1.8-1.5-1.1-1.3-2.6l4.3-.4-.4,3c2.6.2,5,0,6.9-1.9l-1.7-1.9c2.5-.8,2.6,1.4,3.4,1.9s5.7.6,6.7.7c2.2.1,7.8,0,9.8-.4s.5-1.1,1.3-1.4,1.7-.2,2-.4c.5-.5.4-2.7,3.3-2.5,1,.9-1.5,2.9-1.1,3.5l2.6.3c0-2.6,3.4-4.8,4.2-1.7s-1.5,5.4,1.8,4.6l1.6-3.6c4-.1,4.1,4.3,1,5.4v1.5c2.5-1,4.2,1.9,5.8,2s2-.6,3-.7c3.4-.2,6.5-.2,8,3.3,1.1-.4,1.3-.8,2.4.2l.7-1.5-1.3-.9c1.1-1.9.1-1.9,0-3-.2-2.2.6-3.1-1.8-4.3.5-1.1.8-2.2,2.2-1.9.5-.5-2.6-2.6-.5-5.3s2-.5,3-.3l.5,2.3,3.5.6-.9-2.4c1-1.3,2-.5,3,.2,1.4-2-8.7-4.1-4-5.5s4.7.4,5.6.9Z"/>
  <path class="st0" d="M369.3,192c127.7-5.8,221.7,116.7,182.2,238.6-36.5,112.7-173.2,161.3-272.6,95.5-101.1-66.9-111.1-211-19-290.5,29.8-25.7,70.1-41.8,109.4-43.6ZM255.8,241.7c-82.7,76.7-75.1,210.4,15.7,277.1,81.9,60.2,197.4,41.1,255.1-42.3,45.9-66.4,42.1-154.1-8.6-216.7-65.3-80.6-186.1-88.6-262.2-18.1Z"/>
  <path class="st0" d="M95.7,422.9l-1.7-.4c-.2,1.1-.6,4.3,0,5.1s1.1,0,1.6.8c1,1.9.9,5.3,1.4,7.2.7,3.2,2.6,5.7,1.7,9.5-.1.5-4,.8-3.9,2.1s1.5,1.5,1.9,2,3,9.6,3.2,10.7-.5,3,.5,3.7,2.4.3,3,1.7l-1.8,1.3c0,3.6-.6,5.8,1.3,9s4.3,6.6,4.7,7.8,0,1.8.1,2.5c.7,2.3,2.2,4.2,1.5,6.7s-1.3,2.5-1.5,2.7c-.5.5-1.9.4-2.7,1.1-1.4,1.3-1.5,5.6-4.6.7s-4.4-11.4-4.7-14.3c-.6-5.9,0-12.1-2-17.8s-2.3-4.1-2.6-5.5.2-2.5-.5-4.3-2-1.9-2.2-3.4-.4-4,.8-4.5l.4,1.5,2.6.2-.4-4.3,3,.4c.5-1.7-1.6-7.9-3.3-8.2s-1,.8-1.5,1.1-1-.1-1.4,0c-1,.2-1.8,1.2-2.9-.3s.6-4.1.4-5.1-1.5-2.4-1.9-3.3c-1-2.4-1-4.1-3.4-6s-6.9-3-9.2-4.6-1.8-2.8-3.9-3v-1.9s2,1.3,2,1.3c.5-.7,3.3-2.1,3.9-2.1,2.3,0,2.6,4.3,5,3.9-.9-1.4.6-4.8,1.7-2.7s0,.8,0,.9,1-.4,1.3-.2,2.4,3.5,3,3.9c1,.7,3.5-1,4.7-1.2.6-.7-1.2-7.9,2.4-6.8s1.4,4.6,2.3,5.5c-.6,3.1,1.4,4,1.8,6.6Z"/>
  <path class="st0" d="M460.3,639.3c0,2.8-2,1.8-3.6,2.2s-.9.9-1.5,1.1c-1.7.7-6.1.7-7.7-.3s-4.2-3.6-4.3-3.8c-2.1-2.6.9-3.8,3.2-3.8s3.9,1.3,5.9,1.2,5.1-1.9,7-2.1c2.8-.4,9.4-.4,6.8,3.8s-3.6,3-5.8,1.7Z"/>
  <path class="st0" d="M85.3,559.5c-4.7-.3-8-4-11.6-6.5-.5-1.5,1.6-2,1.7-3.2s-2.3-5.7-2.5-7.4-.3-1.3.6-1.8c1.6,1.8,3.6,3.4,5.2,5.1s5.3,6.8,6.2,9.3.5,3,.4,4.5Z"/>
  <path class="st0" d="M615.9,502.6c-.2,3.2,2,2.2,2.8,0,.5.8,2.3,1.9,2.6,2.6s.7,2.1,1.2,3.1c.8,2,.7,3.1-.1,5-1.2-.6-2.9,0-3.7-.2s-1.7-1.7-3.2-1.2c-.9-2.1.1-2.3,1.2-3.8-1.1,0-2.9.4-3-1.1s1.3-5.5,2.2-4.5Z"/>
  <path class="st0" d="M389.2,562.6c1,1.5-1.4,2-2,3-2.4-.3-5.3,2.1-7.3.3.9-2,0-2.8-1-4.3,1.5-1.7,3.2-.1,4.6.2s5.6.7,5.7.9Z"/>
  <path class="st0" d="M333.9,609.6c.8,1.5-1.1,2.3-2.3,2.5-3.6.6-8.4-1.2-7.5-5.6.8-.8,9.2,2.1,9.8,3.1Z"/>
  <path class="st0" d="M49.1,307c.4.4-.6,3.2-1,3.8-.8-.9-.3-1.9-1.9-1.8v-1.2c0,0-1.8.4-1.8.4.8-2.8-1.4-3-1.3-5.2,2.5.5,2-1.6,3-2.7s2.2-.6,2.2-2l.8,1c-1.5,1.2,0,1.9,0,2.6s-1.4,2-1.5,2.8c-.7,2.8,1.2,1.9,1.6,2.3Z"/>
  <path class="st0" d="M440.7,624.2c1.9.2.4,2.9,1.9,3.7,2.3,1.1,4.2-1.9,6,0-1.4,1.5-7.2,4.7-9.1,3.5s.5-2.4.4-3c-.2-1.5-2-2.3.7-4.2Z"/>
  <path class="st0" d="M21.1,331.5c-1,2.9,1.9,3.7,2.4,5.1s-.3,4.6,1.4,6.4l-2.3,3.5c-3.1-.9-4.3-5.8-.6-6.7v-4.5s-3,0-3,0c-.5-1.5.8-1.2,1.1-1.7.6-1-.4-2.5,1.1-2.2Z"/>
  <path class="st0" d="M374,559.2c.4.4.4,1.5,1,1.9s1.3-.2,1.8,0c.7.3,2.1,3.2,1.2,4.1-3.6.5-4.9-3.1-8.1-3.5v-3c1.1,0,3.3-.3,4.2.5Z"/>
  <path class="st0" d="M30.6,375.5c-.6,2.6-2.2,4.8-4.9,5.7s-5.9-1.3-4.3-2.3c3-1.3,5.8-3.2,9.2-3.4Z"/>
  <path class="st0" d="M450.8,617.3v1.7s-10.8,1.3-10.8,1.3c-.3-.9.6-1.7,1.2-2.1s3.9-1.6,4.7-1.7c1.3-.2,3.2,1.3,4.9.8Z"/>
  <path class="st0" d="M603,120.3c-.6.6-2.6-2.2-3-2.4s-1,.6-1.8.5-2.8-1.6-2.9-2.2.5-1.1.3-1.4-2.7-.8-1.5-2.7,2.5,1.7,3,2.2c1.8,1.4,3.5,2.2,5.2,4.3s.8.9.6,1.8Z"/>
  <path class="st0" d="M51.3,285.4c-.3,1.1.7,2,.9,2.8.5,2.6-1.5,2.2-2.6,3.8s-.9,2.4-1.3,3.5.1,1.1-1.1.6.1-3,.4-3.9c.6-1.7,1.9-5,2.7-6.3s0-.8,1-.6Z"/>
  <path class="st0" d="M557.7,557.9c.2.2-.2,1.1,1,1.8,2.3,1.3,6-.9,6.4,3.3-1.4.6-2.5-.7-3.9-1.1s-3.6-.3-4.3-.9-.4-1.1-.7-1.5c-.6-.7-2.1-.4-1.9-1.7.7.1,3-.3,3.4,0Z"/>
  <path class="st0" d="M490,575.5c.5.9-1,2.5-1.9,2.6s-5.7-2-5.8-2.4l.5-1.4c.6-.4,6.8.6,7.2,1.3Z"/>
  <path class="st0" d="M623.7,581.1c-.2,3.8-2.2,8.1-6,9,0-1.2,1.3-1.7,1.9-2.6.9-1.4,1.8-4,2.7-5.4s.5-1.2,1.4-1Z"/>
  <path class="st0" d="M293.1,628.9c-1.1.7-5.9-1.9-4.7-3l3.9-1.1c1.4.7.3,2.8.9,4.1Z"/>
  <path class="st0" d="M28.1,369.1v1.2c0,0-1.3-.4-1.3-.4l-.9,1.7.9-4.3c.7-.2,1.1.7,1.5.7s1.7-1.4,1.9,0-1.9.9-2.1,1.1Z"/>
  <path class="st0" d="M492.7,572.5h-2.5c-1.1-2.3-.4-3.4,2.1-2.8l.4,2.8Z"/>
  <path class="st0" d="M109.5,501.8c-1.1.2-.7-.3-1.1-.8s-2.1-3.3-1.9-3.5l2.8.4.2,3.9Z"/>
  <path class="st0" d="M491.4,660l-.2.9c-.8-.7-5.4,1.7-5.4.2s2.8-1.9,3.3-2c.9,0,1.5.8,2.3.9Z"/>
  <path class="st0" d="M72.4,540.6c-1.4-.2-1.8-1.7-3.4-1.3l.6-2.1c1.3,1,3.2,1.3,2.8,3.4Z"/>
  <path class="st0" d="M125.8,431.5c0-1.1.8-1.9,1.5-2.6l1.5,2.4-.7,1.1-2.4-.9Z"/>
  <path class="st0" d="M582.7,583.2c2.3-.4.7,5.2.2,5.2-1.5-1.3.2-3.5-.2-5.2Z"/>
  <path class="st0" d="M463.3,645.7c-1.2,1.3-.8-4-.9-4.3l1.6,1.1-.8,3.2Z"/>
  <path class="st0" d="M374.8,369.1l3.8,2.4,2.7-2.4,2.3,1.5-3,3.1,3,3.4c-2.2,3-3,.6-5-1l-3,2.5-1.5-.6c-1.5-1.7,2-3,2.2-4l-2.5-3,1.1-1.8Z"/>
</svg>